<svg width="140" height="140.01" xmlns="http://www.w3.org/2000/svg"><path d="m18.67 36.27 47.66 31.36V140l-47.66-31.36Z" fill="#365c9d"/><path d="m121.33 31.44-55 36.2V140l55-36.2Z" fill="#4471bb"/><path d="m18.67 36.27 55-36.2 47.65 31.37-54.99 36.19Z" fill="#6288c8"/><path d="M66.33 53.08v9.65L114 31.37v-4.83h-7.33z" fill="#4471bb"/><path d="M26 31.36v4.83l40.33 26.53v-9.65l-33-21.7Z" fill="#365c9d"/><path d="M26 31.36 66.33 57.9 114 26.54 73.66 0Z" fill="#6288c8"/><path d="M66.43 46.11v7l40.22-26.56v-4.83l-5.31 1.33z" fill="#4471bb"/><path d="M33.33 26.54v4.83l33.1 21.73v-7L38.65 26.54Z" fill="#365c9d"/><path d="m73.66 19.3-39.6 6.78-.74.46 33 21.7z" fill="#3e69b1"/><path d="m73.66 19.3-7.33 28.95 39.72-26.17Z" fill="#527bc2"/><path d="M73.65 0 34.07 26.1l39.59-6.78.02-19.3Z" fill="#345894"/><path d="m73.68 0 3.64 16.9 28.73 5.19.6-.39z" fill="#6288c8"/><path d="M73.7 21.7c3.35 0 5.27-3.26 5.27-8.1l-5.28-1.17z" fill="#ececec"/><path d="M73.7 21.7v-9.27l-5.27 1.16c0 4.65 2.12 8.1 5.26 8.1z" fill="#ccc"/><path d="M56.69 13.6v6.93" stroke-linejoin="round" stroke="#3f6bb4" stroke-linecap="round" stroke-width=".65" fill="none" transform="matrix(.87737 0 0 1 18.67 0)"/><path d="M73.7 8.53c-1.4-.43-3.63 1.82-5.27 5.06-.96 1.89 3.26 3.47 5.26 3.47z" fill="#3c65aa"/><path d="M68.71 13.6v6.93m-6-3.47v6.95" stroke-linejoin="round" stroke="#3f6bb4" stroke-linecap="round" stroke-width=".65" fill="none" transform="matrix(.87737 0 0 1 18.67 0)"/><path d="M73.7 8.53v8.53c2.05 0 5.27-1.77 5.27-3.47-1.24-2.46-3.78-5.52-5.28-5.06Z" fill="#4f79c1"/><path d="M70 69.97v14.47l47.66-31.36V38.6Z" fill="#333"/><path d="M58.5 69.97v14.47l54.32-31.36V38.6Z" stroke-linejoin="round" stroke="#31558e" stroke-linecap="round" stroke-width="2.72" fill="none" transform="matrix(.87737 0 0 1 18.67 0)"/><path d="M62.67 69.97v14.47L22.34 57.91V43.42Z" fill="#333"/><path d="M50.14 69.97v14.47L4.18 57.91V43.42Z" stroke-linejoin="round" stroke="#2d4f84" stroke-linecap="round" stroke-width="2.72" fill="none" transform="matrix(.87737 0 0 1 18.67 0)"/><text style="font-size:16.3405px;line-height:0%;stroke-width:1.36171" transform="matrix(.66965 -.43318 .01314 1.3017 18.67 0)" y="86.42" x="78.79" font-family="sans-serif" letter-spacing="0" word-spacing="0" fill="#fff"><tspan y="86.42" x="78.79" style="line-height:1.25;stroke-width:1.85424" font-weight="700" font-size="5.89">POLICE</tspan></text><text style="font-size:16.3402px;line-height:0%;text-align:center;stroke-width:1.36168" transform="matrix(.6522 -.4578 .04863 1.31111 18.67 0)" y="83.86" x="114.62" font-family="sans-serif" letter-spacing="0" word-spacing="0" text-anchor="middle" fill="#fff"><tspan x="114.62" y="83.86" style="line-height:1.25;stroke-width:1.85418" font-size="3.11">PUBLIC</tspan><tspan x="114.62" y="89.24" dy="-.91" style="line-height:1.25;stroke-width:1.85418" font-size="3.11">CALL</tspan></text><text style="font-size:16.3401px;line-height:0%;stroke-width:1.36167" transform="matrix(.67737 .45624 .01968 1.30852 18.67 0)" y="39.04" x="7.55" font-family="sans-serif" letter-spacing="0" word-spacing="0" fill="#c83737"><tspan y="39.04" x="7.55" style="line-height:1.25;stroke-width:1.85415" font-weight="700" font-size="5.19" fill="#fff">POLICE</tspan></text><text style="font-size:16.3401px;line-height:0%;text-align:center;stroke-width:1.36167" transform="matrix(.67737 .45624 .01968 1.30852 18.67 0)" y="35.67" x="38.43" font-family="sans-serif" letter-spacing="0" word-spacing="0" text-anchor="middle" fill="#c83737"><tspan x="38.43" style="line-height:1.25;text-align:center;stroke-width:1.85415" y="35.67" font-size="2.76" fill="#fff">PUBLIC</tspan><tspan style="line-height:1.25;text-align:center;stroke-width:1.85415" dy="-.78" y="40.92" x="38.43" font-size="2.76" fill="#fff">CALL</tspan></text><path d="M58.5 89.26v48.25l54.32-31.36V57.9Z" stroke-linejoin="round" stroke="#365e9d" stroke-linecap="round" fill="none" stroke-width="1.36" transform="matrix(.87737 0 0 1 18.67 0)"/><path d="M70 89.26v48.25l47.66-31.36V57.9Z" fill="#416cb7"/><path d="M62.67 91.67v9.65l20.89-12.06v-9.65zm45.97-26.52v9.65l-20.9 12.06V77.2zm-45.97 41v9.65l20.89-12.07v-9.65zm25.08-14.48v9.65l20.9-12.06v-9.65zm-25.08 28.95v9.65l20.89-12.06v-9.65zm25.08-14.47v9.65l20.9-12.07v-9.65z" stroke-linejoin="round" stroke="#365e9d" stroke-linecap="round" fill="none" stroke-width="1.36" transform="matrix(.87737 0 0 1 18.67 0)"/><path d="M73.66 91.67v9.65l18.33-12.06v-9.65zm40.33-26.52v9.65L95.66 86.86V77.2z" fill="#e6e6e6"/><path d="M73.66 106.15v9.65l18.33-12.07v-9.65zm22-14.48v9.65L114 89.26v-9.65zm-22 28.95v9.65l18.33-12.06v-9.65zm22-14.47v9.65L114 103.73v-9.65z" fill="#3d65ab"/><path d="M66.85 89.26v9.65m4.18-12.06v9.65m4.18-12.06v9.65m4.18-12.06v9.65m12.53-16.9v9.66m4.18-12.06v9.65m4.18-12.06v9.65m4.18-12.06v9.65m-41.8 19.3 20.9-12.07m4.19-2.4 20.9-12.07" stroke-linejoin="round" stroke="#365e9d" stroke-linecap="round" stroke-width=".68" fill="none" transform="matrix(.87737 0 0 1 18.67 0)"/><path d="M50.14 89.26v48.25L4.18 110.97V62.73Z" stroke-linejoin="round" stroke="#365e9d" stroke-linecap="round" fill="none" stroke-width="1.36" transform="matrix(.87737 0 0 1 18.67 0)"/><path d="M62.67 89.26v48.25l-40.33-26.54V62.73Z" fill="#3f68b0"/><path d="M45.96 91.67v9.65l-16.71-9.65v-9.65zm-37.6-21.7v9.65l16.7 9.65v-9.65zm37.6 36.18v9.65l-16.71-9.65V96.5zM25.06 94.1v9.65L8.37 94.1v-9.65zm20.9 26.52v9.65l-16.71-9.65v-9.65zm-20.9-12.05v9.65l-16.7-9.65v-9.65z" stroke-linejoin="round" stroke="#31568f" stroke-linecap="round" fill="none" stroke-width="1.36" transform="matrix(.87737 0 0 1 18.67 0)"/><path d="M59 91.67v9.65l-14.67-9.65v-9.65zm-33-21.7v9.65l14.67 9.65v-9.65z" fill="#e6e6e6"/><path d="M59 106.15v9.65l-14.67-9.65V96.5zM40.67 94.1v9.65L26 94.1v-9.65zM59 120.62v9.65l-14.67-9.65v-9.65zm-18.33-12.05v9.65L26 108.57v-9.65z" fill="#385c9c"/><path d="M41.78 89.26v9.65M37.6 86.85v9.65m-4.18-12.06v9.65M16.71 74.8v9.65m-4.18-12.06v9.65m8.36-4.83v9.65m25.07 9.66-16.71-9.65m-4.18-2.42L8.35 74.8" stroke-linejoin="round" stroke="#31568f" stroke-linecap="round" stroke-width=".68" fill="none" transform="matrix(.87737 0 0 1 18.67 0)"/><path d="M99.14 95.17a1 1.85 0 0 1-1 1.85 1 1.85 0 0 1-1-1.85 1 1.85 0 0 1 1-1.85 1 1.85 0 0 1 1 1.85z" fill="#ccc"/><path d="M78 104.19v7.86l5.98-3.93v-7.86l-5.97 3.93z" fill="#f2f2f2"/><text style="font-size:16.3401px;line-height:0%;stroke-width:1.36167" transform="matrix(.67737 .45624 .01968 1.30852 18.67 0)" y="38.8" x="47.68" font-family="sans-serif" letter-spacing="0" word-spacing="0" fill="#c83737"><tspan y="38.8" x="47.68" style="line-height:1.25;stroke-width:1.85415" font-weight="700" font-size="5.19" fill="#fff">BOX</tspan></text><text style="font-size:16.3405px;line-height:0%;stroke-width:1.36171" transform="matrix(.66965 -.43318 .01314 1.3017 18.67 0)" y="86.13" x="128.66" font-family="sans-serif" letter-spacing="0" word-spacing="0" fill="#fff"><tspan y="86.13" x="128.66" style="line-height:1.25;stroke-width:1.85424" font-weight="700" font-size="5.89">BOX</tspan></text></svg>