<svg xmlns="http://www.w3.org/2000/svg" viewBox="0 0 150 150"><path d="M16.505 41.289l54.32 31.362v72.375l-54.32-31.362z" fill="#365c9d"/><path d="M133.505 36.468L70.827 72.655v72.375l62.678-36.187z" fill="#4471bb"/><path d="M16.505 41.289L79.182 5.1l54.321 31.362L70.826 72.65z" fill="#6288c8"/><path d="M70.826 58.106v9.65l54.32-31.363v-4.825h-8.356z" fill="#4471bb"/><path d="M24.859 36.386v4.825l45.964 26.537v-9.65L33.217 36.386z" fill="#365c9d"/><path d="M24.859 36.386l45.964 26.537 54.32-31.362L79.18 5.024z" fill="#6288c8"/><path d="M70.935 51.134v6.997l45.847-26.559v-4.825l-6.06 1.327z" fill="#4471bb"/><path d="M33.215 31.566v4.825L70.94 58.124v-6.997L39.275 31.566z" fill="#365c9d"/><path d="M79.173 24.322L34.052 31.1l-.851.468 37.616 21.703z" fill="#3e69b1"/><path d="M79.173 24.322l-8.356 28.95L116.094 27.1z" fill="#527bc2"/><path d="M79.16 5.026L34.052 31.111l45.121-6.779.028-19.306z" fill="#345894"/><path d="M79.2 5.026l4.151 16.894 32.742 5.191.68-.383z" fill="#6288c8"/><path d="M79.214 26.718c3.824 0 6.02-3.256 6.02-8.102l-6.02-1.163v9.265z" fill="#ececec"/><path d="M79.214 26.718v-9.265l-6 1.163c0 4.644 2.422 8.102 6 8.102z" fill="#ccc"/><path d="M73.195 18.616v6.942" stroke-linejoin="round" stroke="#3f6bb4" stroke-linecap="round" stroke-width=".654" fill="none"/><path d="M79.214 13.55c-1.598-.427-4.133 1.828-6 5.062-1.09 1.889 3.72 3.47 6 3.47V13.55z" fill="#3c65aa"/><path d="M85.219 18.616v6.942m-6.005-3.469v6.942" stroke-linejoin="round" stroke="#3f6bb4" stroke-linecap="round" stroke-width=".654" fill="none"/><path d="M79.214 13.55v8.532c2.343 0 6.02-1.766 6.02-3.47-1.419-2.458-4.317-5.518-6.02-5.061z" fill="#4f79c1"/><path d="M75.006 74.99v14.476l54.321-31.363V43.628z" fill="#333"/><path d="M75.006 74.99v14.476l54.321-31.363V43.628z" stroke-linejoin="round" stroke="#31558e" stroke-linecap="round" stroke-width="2.723" fill="none"/><path d="M66.645 74.99v14.476L20.681 62.929V48.454z" fill="#333"/><path d="M66.645 74.99v14.476L20.681 62.929V48.454z" stroke-linejoin="round" stroke="#2d4f84" stroke-linecap="round" stroke-width="2.723" fill="none"/><text style="line-height:0%" transform="matrix(1.03932 -.58986 .02039 1.77252 -71.472 -739.02)" y="508.487" x="136.264" font-family="sans-serif" letter-spacing="0" word-spacing="0" fill="#fff"><tspan y="508.487" x="136.264" style="line-height:1.25" font-weight="700" font-size="4.323">POLICE BOX</tspan></text><text style="line-height:0%;text-align:center" transform="matrix(1.01222 -.62339 .07547 1.78532 -71.472 -739.02)" y="498.108" x="138.376" font-family="sans-serif" letter-spacing="0" word-spacing="0" text-anchor="middle" fill="#fff"><tspan x="138.376" y="498.108" style="line-height:1.25" font-size="2.282">PUBLIC</tspan><tspan x="138.376" y="502.059" dy="-.667" style="line-height:1.25" font-size="2.282">CALL</tspan></text><text style="line-height:0%" transform="matrix(1.05127 .62125 .03055 1.78178 -71.472 -739.02)" y="421.051" x="77.829" font-family="sans-serif" letter-spacing="0" word-spacing="0" fill="#c83737"><tspan y="421.051" x="77.829" style="line-height:1.25" font-weight="700" font-size="3.812" fill="#fff">POLICE BOX</tspan></text><text style="line-height:0%;text-align:center" transform="matrix(1.05127 .62125 .03055 1.78178 -71.472 -739.02)" y="419.295" x="99.539" font-family="sans-serif" letter-spacing="0" word-spacing="0" text-anchor="middle" fill="#c83737"><tspan x="99.539" style="line-height:1.25;text-align:center" y="419.295" font-size="2.03" fill="#fff">PUBLIC</tspan><tspan style="line-height:1.25;text-align:center" dy="-.57" y="423.154" x="99.539" font-size="2.03" fill="#fff">CALL</tspan></text><path d="M75.006 94.286v48.249l54.321-31.363V62.923z" stroke-linejoin="round" stroke="#365e9d" stroke-linecap="round" fill="none" stroke-width="1.362"/><path d="M75.006 94.286v48.249l54.321-31.363V62.923z" fill="#416cb7"/><path d="M79.173 96.696v9.65l20.892-12.062v-9.65zm45.971-26.526v9.65L104.25 91.882v-9.65zm-45.971 41.001v9.65l20.892-12.063v-9.65zm25.082-14.475v9.65l20.893-12.062v-9.65zm-25.082 28.95v9.65l20.892-12.063v-9.65zm25.082-14.475v9.65l20.893-12.063v-9.65z" stroke-linejoin="round" stroke="#365e9d" stroke-linecap="round" fill="none" stroke-width="1.362"/><path d="M79.173 96.696v9.65l20.892-12.062v-9.65zm45.971-26.526v9.65L104.25 91.882v-9.65z" fill="#e6e6e6"/><path d="M79.173 111.171v9.65l20.892-12.063v-9.65zm25.082-14.475v9.65l20.893-12.062v-9.65zm-25.082 28.95v9.65l20.892-12.063v-9.65zm25.082-14.475v9.65l20.893-12.063v-9.65z" fill="#3d65ab"/><path d="M83.353 94.286v9.65m4.181-12.06v9.65m4.18-12.06v9.65m4.181-12.061v9.65m12.527-16.894v9.65m4.181-12.061v9.65m4.18-12.06v9.65m4.18-12.06v9.65m-41.79 19.3l20.892-12.062m4.19-2.413l20.893-12.062" stroke-linejoin="round" stroke="#365e9d" stroke-linecap="round" stroke-width=".681" fill="none"/><path d="M66.645 94.286v48.249l-45.964-26.537V67.75z" stroke-linejoin="round" stroke="#365e9d" stroke-linecap="round" fill="none" stroke-width="1.362"/><path d="M66.645 94.286v48.249l-45.964-26.537V67.75z" fill="#3f68b0"/><path d="M62.465 96.696v9.65l-16.714-9.65v-9.65zM24.859 74.99v9.65l16.713 9.65v-9.65zm37.606 36.181v9.65l-16.714-9.65v-9.65zM41.572 99.12v9.65L24.86 99.12v-9.65zm20.893 26.526v9.65l-16.714-9.65v-9.65zm-20.893-12.051v9.65l-16.713-9.65v-9.65z" stroke-linejoin="round" stroke="#31568f" stroke-linecap="round" fill="none" stroke-width="1.362"/><path d="M62.465 96.696v9.65l-16.714-9.65v-9.65zM24.859 74.99v9.65l16.713 9.65v-9.65z" fill="#e6e6e6"/><path d="M62.465 111.171v9.65l-16.714-9.65v-9.65zM41.572 99.12v9.65L24.86 99.12v-9.65zm20.893 26.526v9.65l-16.714-9.65v-9.65zm-20.893-12.051v9.65l-16.713-9.65v-9.65z" fill="#385c9c"/><path d="M58.286 94.286v9.65m-4.178-12.06v9.65m-4.179-12.06v9.65M33.215 79.811v9.65M29.036 77.4v9.65m8.357-4.829v9.65m25.072 9.659L45.75 91.88m-4.178-2.414l-16.713-9.65" stroke-linejoin="round" stroke="#31568f" stroke-linecap="round" stroke-width=".681" fill="none"/><path d="M108.221 100.193a1.144 1.85 0 0 1-1.143 1.85 1.144 1.85 0 0 1-1.144-1.85 1.144 1.85 0 0 1 1.144-1.85 1.144 1.85 0 0 1 1.143 1.85z" fill="#ccc"/><path d="M84.13 109.21v7.863l6.809-3.931v-7.863l-6.81 3.931z" fill="#f2f2f2"/></svg>