<?xml version="1.0" encoding="UTF-8" standalone="no"?>
<svg
   viewBox="0 0 140 140.006"
   version="1.1"
   id="svg94"
   sodipodi:docname="logo-src.svg"
   width="140"
   height="140.006"
   inkscape:version="1.1.2 (b8e25be833, 2022-02-05)"
   inkscape:export-filename="C:\workspace\code\nearmeck\public\img\android-chrome-512x512.png"
   inkscape:export-xdpi="351.07068"
   inkscape:export-ydpi="351.07068"
   xmlns:inkscape="http://www.inkscape.org/namespaces/inkscape"
   xmlns:sodipodi="http://sodipodi.sourceforge.net/DTD/sodipodi-0.dtd"
   xmlns="http://www.w3.org/2000/svg"
   xmlns:svg="http://www.w3.org/2000/svg">
  <defs
     id="defs98" />
  <sodipodi:namedview
     id="namedview96"
     pagecolor="#ffffff"
     bordercolor="#666666"
     borderopacity="1.0"
     inkscape:pageshadow="2"
     inkscape:pageopacity="0.0"
     inkscape:pagecheckerboard="0"
     showgrid="false"
     fit-margin-top="0"
     fit-margin-left="0"
     fit-margin-right="0"
     fit-margin-bottom="0"
     inkscape:zoom="6.778797"
     inkscape:cx="56.868497"
     inkscape:cy="74.423235"
     inkscape:window-width="2400"
     inkscape:window-height="1321"
     inkscape:window-x="4791"
     inkscape:window-y="-9"
     inkscape:window-maximized="1"
     inkscape:current-layer="svg94" />
  <g
     id="g920"
     transform="matrix(0.877373,0,0,1,18.67368,0)">
    <path
       d="m 0,36.265 54.32,31.362 v 72.375 L 0,108.64 Z"
       fill="#365c9d"
       id="path2" />
    <path
       d="M 117,31.444 54.322,67.631 v 72.375 L 117,103.819 Z"
       fill="#4471bb"
       id="path4" />
    <path
       d="M 0,36.265 62.677,0.076 116.998,31.438 54.321,67.626 Z"
       fill="#6288c8"
       id="path6" />
    <path
       d="m 54.321,53.082 v 9.65 l 54.32,-31.363 v -4.825 h -8.356 z"
       fill="#4471bb"
       id="path8" />
    <path
       d="m 8.354,31.362 v 4.825 l 45.964,26.537 v -9.65 L 16.712,31.362 Z"
       fill="#365c9d"
       id="path10" />
    <path
       d="M 8.354,31.362 54.318,57.899 108.638,26.537 62.675,0 Z"
       fill="#6288c8"
       id="path12" />
    <path
       d="m 54.43,46.11 v 6.997 l 45.847,-26.559 v -4.825 l -6.06,1.327 z"
       fill="#4471bb"
       id="path14" />
    <path
       d="m 16.71,26.542 v 4.825 L 54.435,53.1 V 46.103 L 22.77,26.542 Z"
       fill="#365c9d"
       id="path16" />
    <path
       d="m 62.668,19.298 -45.121,6.778 -0.851,0.468 37.616,21.703 z"
       fill="#3e69b1"
       id="path18" />
    <path
       d="M 62.668,19.298 54.312,48.248 99.589,22.076 Z"
       fill="#527bc2"
       id="path20" />
    <path
       d="M 62.655,0.002 17.547,26.087 62.668,19.308 62.696,0.002 Z"
       fill="#345894"
       id="path22" />
    <path
       d="m 62.695,0.002 4.151,16.894 32.742,5.191 0.68,-0.383 z"
       fill="#6288c8"
       id="path24" />
    <path
       d="m 62.709,21.694 c 3.824,0 6.02,-3.256 6.02,-8.102 l -6.02,-1.163 z"
       fill="#ececec"
       id="path26" />
    <path
       d="m 62.709,21.694 v -9.265 l -6,1.163 c 0,4.644 2.422,8.102 6,8.102 z"
       fill="#cccccc"
       id="path28" />
    <path
       d="m 56.69,13.592 v 6.942"
       stroke-linejoin="round"
       stroke="#3f6bb4"
       stroke-linecap="round"
       stroke-width="0.654"
       fill="none"
       id="path30" />
    <path
       d="m 62.709,8.526 c -1.598,-0.427 -4.133,1.828 -6,5.062 -1.09,1.889 3.72,3.47 6,3.47 z"
       fill="#3c65aa"
       id="path32" />
    <path
       d="m 68.714,13.592 v 6.942 m -6.005,-3.469 v 6.942"
       stroke-linejoin="round"
       stroke="#3f6bb4"
       stroke-linecap="round"
       stroke-width="0.654"
       fill="none"
       id="path34" />
    <path
       d="m 62.709,8.526 v 8.532 c 2.343,0 6.02,-1.766 6.02,-3.47 C 67.31,11.13 64.412,8.07 62.709,8.527 Z"
       fill="#4f79c1"
       id="path36" />
    <path
       d="M 58.501,69.966 V 84.442 L 112.822,53.079 V 38.604 Z"
       fill="#333333"
       id="path38" />
    <path
       d="M 58.501,69.966 V 84.442 L 112.822,53.079 V 38.604 Z"
       stroke-linejoin="round"
       stroke="#31558e"
       stroke-linecap="round"
       stroke-width="2.723"
       fill="none"
       id="path40" />
    <path
       d="M 50.14,69.966 V 84.442 L 4.176,57.905 V 43.43 Z"
       fill="#333333"
       id="path42" />
    <path
       d="M 50.14,69.966 V 84.442 L 4.176,57.905 V 43.43 Z"
       stroke-linejoin="round"
       stroke="#2d4f84"
       stroke-linecap="round"
       stroke-width="2.723"
       fill="none"
       id="path44" />
    <text
       style="font-size:16.3405px;line-height:0%;stroke-width:1.36171"
       transform="matrix(0.76324857,-0.43317727,0.01497387,1.3016908,0,0)"
       y="86.417213"
       x="78.791344"
       font-family="sans-serif"
       letter-spacing="0"
       word-spacing="0"
       fill="#ffffff"
       id="text48"><tspan
         y="86.417213"
         x="78.791344"
         style="line-height:1.25;stroke-width:1.85424"
         font-weight="700"
         font-size="5.88665px"
         id="tspan46">POLICE</tspan></text>
    <text
       style="font-size:16.3402px;line-height:0%;text-align:center;stroke-width:1.36168"
       transform="matrix(0.74335887,-0.45780807,0.05542401,1.3111116,0,0)"
       y="83.864029"
       x="114.61736"
       font-family="sans-serif"
       letter-spacing="0"
       word-spacing="0"
       text-anchor="middle"
       fill="#ffffff"
       id="text54"><tspan
         x="114.61736"
         y="83.864029"
         style="line-height:1.25;stroke-width:1.85418"
         font-size="3.10736px"
         id="tspan50">PUBLIC</tspan><tspan
         x="114.61736"
         y="89.244026"
         dy="-0.90824336"
         style="line-height:1.25;stroke-width:1.85418"
         font-size="3.10736px"
         id="tspan52">CALL</tspan></text>
    <text
       style="font-size:16.3401px;line-height:0%;stroke-width:1.36167"
       transform="matrix(0.77204306,0.45624031,0.02243564,1.3085229,0,0)"
       y="39.038311"
       x="7.5508142"
       font-family="sans-serif"
       letter-spacing="0"
       word-spacing="0"
       fill="#c83737"
       id="text58"><tspan
         y="39.038311"
         x="7.5508142"
         style="line-height:1.25;stroke-width:1.85415"
         font-weight="700"
         font-size="5.1907px"
         fill="#ffffff"
         id="tspan56">POLICE</tspan></text>
    <text
       style="font-size:16.3401px;line-height:0%;text-align:center;stroke-width:1.36167"
       transform="matrix(0.77204307,0.45624031,0.02243564,1.3085229,0,0)"
       y="35.670212"
       x="38.431316"
       font-family="sans-serif"
       letter-spacing="0"
       word-spacing="0"
       text-anchor="middle"
       fill="#c83737"
       id="text64"><tspan
         x="38.431316"
         style="line-height:1.25;text-align:center;stroke-width:1.85415"
         y="35.670212"
         font-size="2.7642px"
         fill="#ffffff"
         id="tspan60">PUBLIC</tspan><tspan
         style="line-height:1.25;text-align:center;stroke-width:1.85415"
         dy="-0.77615345"
         y="40.924877"
         x="38.431316"
         font-size="2.7642px"
         fill="#ffffff"
         id="tspan62">CALL</tspan></text>
    <path
       d="m 58.501,89.262 v 48.249 l 54.321,-31.363 V 57.899 Z"
       stroke-linejoin="round"
       stroke="#365e9d"
       stroke-linecap="round"
       fill="none"
       stroke-width="1.362"
       id="path66" />
    <path
       d="m 58.501,89.262 v 48.249 l 54.321,-31.363 V 57.899 Z"
       fill="#416cb7"
       id="path68" />
    <path
       d="m 62.668,91.672 v 9.65 L 83.56,89.26 v -9.65 z m 45.971,-26.526 v 9.65 L 87.745,86.858 v -9.65 z m -45.971,41.001 v 9.65 L 83.56,103.734 v -9.65 z M 87.75,91.672 v 9.65 L 108.643,89.26 v -9.65 z m -25.082,28.95 v 9.65 L 83.56,118.209 v -9.65 z M 87.75,106.147 v 9.65 l 20.893,-12.063 v -9.65 z"
       stroke-linejoin="round"
       stroke="#365e9d"
       stroke-linecap="round"
       fill="none"
       stroke-width="1.362"
       id="path70" />
    <path
       d="m 62.668,91.672 v 9.65 L 83.56,89.26 v -9.65 z m 45.971,-26.526 v 9.65 L 87.745,86.858 v -9.65 z"
       fill="#e6e6e6"
       id="path72" />
    <path
       d="m 62.668,106.147 v 9.65 L 83.56,103.734 v -9.65 z M 87.75,91.672 v 9.65 L 108.643,89.26 v -9.65 z m -25.082,28.95 v 9.65 L 83.56,118.209 v -9.65 z M 87.75,106.147 v 9.65 l 20.893,-12.063 v -9.65 z"
       fill="#3d65ab"
       id="path74" />
    <path
       d="m 66.848,89.262 v 9.65 m 4.181,-12.06 v 9.65 m 4.18,-12.06 v 9.65 M 79.39,82.031 v 9.65 M 91.917,74.787 v 9.65 m 4.181,-12.061 v 9.65 m 4.18,-12.06 v 9.65 m 4.18,-12.06 v 9.65 m -41.79,19.3 20.892,-12.062 m 4.19,-2.413 20.893,-12.062"
       stroke-linejoin="round"
       stroke="#365e9d"
       stroke-linecap="round"
       stroke-width="0.681"
       fill="none"
       id="path76" />
    <path
       d="m 50.14,89.262 v 48.249 L 4.176,110.974 V 62.726 Z"
       stroke-linejoin="round"
       stroke="#365e9d"
       stroke-linecap="round"
       fill="none"
       stroke-width="1.362"
       id="path78" />
    <path
       d="m 50.14,89.262 v 48.249 L 4.176,110.974 V 62.726 Z"
       fill="#3f68b0"
       id="path80" />
    <path
       d="m 45.96,91.672 v 9.65 l -16.714,-9.65 v -9.65 z M 8.354,69.966 v 9.65 l 16.713,9.65 v -9.65 z m 37.606,36.181 v 9.65 l -16.714,-9.65 v -9.65 z M 25.067,94.096 v 9.65 L 8.355,94.096 v -9.65 z m 20.893,26.526 v 9.65 l -16.714,-9.65 v -9.65 z M 25.067,108.571 v 9.65 l -16.713,-9.65 v -9.65 z"
       stroke-linejoin="round"
       stroke="#31568f"
       stroke-linecap="round"
       fill="none"
       stroke-width="1.362"
       id="path82" />
    <path
       d="m 45.96,91.672 v 9.65 l -16.714,-9.65 v -9.65 z M 8.354,69.966 v 9.65 l 16.713,9.65 v -9.65 z"
       fill="#e6e6e6"
       id="path84" />
    <path
       d="m 45.96,106.147 v 9.65 l -16.714,-9.65 v -9.65 z M 25.067,94.096 v 9.65 L 8.355,94.096 v -9.65 z m 20.893,26.526 v 9.65 l -16.714,-9.65 v -9.65 z M 25.067,108.571 v 9.65 l -16.713,-9.65 v -9.65 z"
       fill="#385c9c"
       id="path86" />
    <path
       d="m 41.781,89.262 v 9.65 m -4.178,-12.06 v 9.65 m -4.179,-12.06 v 9.65 M 16.71,74.787 v 9.65 M 12.531,72.376 v 9.65 m 8.357,-4.829 v 9.65 M 45.96,96.506 29.245,86.856 M 25.067,84.442 8.354,74.792"
       stroke-linejoin="round"
       stroke="#31568f"
       stroke-linecap="round"
       stroke-width="0.681"
       fill="none"
       id="path88" />
    <path
       d="m 91.716,95.169 a 1.144,1.85 0 0 1 -1.143,1.85 1.144,1.85 0 0 1 -1.144,-1.85 1.144,1.85 0 0 1 1.144,-1.85 1.144,1.85 0 0 1 1.143,1.85 z"
       fill="#cccccc"
       id="path90" />
    <path
       d="m 67.625,104.186 v 7.863 l 6.809,-3.931 v -7.863 l -6.81,3.931 z"
       fill="#f2f2f2"
       id="path92" />
    <text
       style="font-size:16.3401px;line-height:0%;stroke-width:1.36167"
       transform="matrix(0.77204307,0.45624031,0.02243564,1.3085229,0,0)"
       y="38.799149"
       x="47.683697"
       font-family="sans-serif"
       letter-spacing="0"
       word-spacing="0"
       fill="#c83737"
       id="text8005"><tspan
         y="38.799149"
         x="47.683697"
         style="line-height:1.25;stroke-width:1.85415"
         font-weight="700"
         font-size="5.1907px"
         fill="#ffffff"
         id="tspan8003">BOX</tspan></text>
    <text
       style="font-size:16.3405px;line-height:0%;stroke-width:1.36171"
       transform="matrix(0.76324858,-0.43317727,0.01497387,1.3016908,0,0)"
       y="86.127434"
       x="128.66263"
       font-family="sans-serif"
       letter-spacing="0"
       word-spacing="0"
       fill="#ffffff"
       id="text12553"><tspan
         y="86.127434"
         x="128.66263"
         style="line-height:1.25;stroke-width:1.85424"
         font-weight="700"
         font-size="5.88665px"
         id="tspan12551">BOX</tspan></text>
  </g>
</svg>
